<?xml version="1.0" encoding="utf-8"?>
<!-- Generator: Adobe Illustrator 15.0.0, SVG Export Plug-In . SVG Version: 6.00 Build 0)  -->
<!DOCTYPE svg PUBLIC "-//W3C//DTD SVG 1.0//EN" "http://www.w3.org/TR/2001/REC-SVG-20010904/DTD/svg10.dtd">
<svg version="1.0" xmlns="http://www.w3.org/2000/svg" xmlns:xlink="http://www.w3.org/1999/xlink" x="0px" y="0px" width="100px"
	 height="100px" viewBox="0 0 100 100" enable-background="new 0 0 100 100" xml:space="preserve">
<g id="Ebene_1">
</g>
<g id="Ebene_2">
	<polygon fill="none" stroke="#E2001A" stroke-width="2" stroke-miterlimit="10" points="-284.917,1820 -274.917,1820 
		-274.917,1827.833 -267,1827.833 -267,1845 -268.083,1846.083 -284.917,1846.083 -286.041,1844.958 -286.041,1821.333 	"/>
	
		<line fill="none" stroke="#E2001A" stroke-width="2" stroke-miterlimit="10" x1="-274.917" y1="1820" x2="-267.042" y2="1827.875"/>
	<polyline fill="none" stroke="#E2001A" stroke-width="2" stroke-miterlimit="10" points="-274.917,1817.583 -273.792,1816.25 
		-263.792,1816.25 -263.792,1824.083 -255.875,1824.083 -255.875,1841.25 -256.958,1842.333 -263.873,1842.333 	"/>
	
		<line fill="none" stroke="#E2001A" stroke-width="2" stroke-miterlimit="10" x1="-263.792" y1="1816.25" x2="-255.917" y2="1824.125"/>
	<path d="M84.768,28.093L62.856,7.319V7.275h-0.05l-0.061-0.054l-0.049,0.054H34.212c-2.931,0-5.318,2.386-5.318,5.317v6.387H14.71
		c-2.931,0-5.318,2.387-5.318,5.317v64.019c0,2.931,2.388,5.316,5.318,5.316h45.525c2.931,0,5.318-2.386,5.318-5.316v-6.387H79.74
		c2.931,0,5.315-2.387,5.315-5.318V28.093H84.768z M60.228,88.315H14.71V24.297h23.332v20.816h22.193L60.228,88.315z M43.357,39.796
		V26.239l14.787,13.557H43.357z M79.732,76.61H65.554V39.796h-0.288L43.357,19.023v-0.044h-0.05l-0.058-0.055l-0.049,0.055h-8.989
		v-6.387h25.585L79.74,31.903L79.732,76.61z"/>
</g>
</svg>
