<?xml version="1.0" encoding="utf-8"?>
<!-- Generator: Adobe Illustrator 15.0.0, SVG Export Plug-In . SVG Version: 6.00 Build 0)  -->
<!DOCTYPE svg PUBLIC "-//W3C//DTD SVG 1.0//EN" "http://www.w3.org/TR/2001/REC-SVG-20010904/DTD/svg10.dtd">
<svg version="1.0" xmlns="http://www.w3.org/2000/svg" xmlns:xlink="http://www.w3.org/1999/xlink" x="0px" y="0px" width="100px"
	 height="100px" viewBox="0 0 100 100" enable-background="new 0 0 100 100" xml:space="preserve">
<g id="Ebene_1">
</g>
<g id="Ebene_2">
	<polygon fill="none" stroke="#E2001A" stroke-width="2" stroke-miterlimit="10" points="-284.917,1820 -274.917,1820 
		-274.917,1827.833 -267,1827.833 -267,1845 -268.083,1846.083 -284.917,1846.083 -286.041,1844.958 -286.041,1821.333 	"/>
	
		<line fill="none" stroke="#E2001A" stroke-width="2" stroke-miterlimit="10" x1="-274.917" y1="1820" x2="-267.042" y2="1827.875"/>
	<polyline fill="none" stroke="#E2001A" stroke-width="2" stroke-miterlimit="10" points="-274.917,1817.583 -273.792,1816.25 
		-263.792,1816.25 -263.792,1824.083 -255.875,1824.083 -255.875,1841.25 -256.958,1842.333 -263.873,1842.333 	"/>
	
		<line fill="none" stroke="#E2001A" stroke-width="2" stroke-miterlimit="10" x1="-263.792" y1="1816.25" x2="-255.917" y2="1824.125"/>
	<g>
		<g>
			<path d="M47.222,92.665c-1.423,0-2.757-0.553-3.76-1.555L6.608,54.254c-1.002-1.002-1.552-2.337-1.552-3.76
				c0-1.422,0.55-2.757,1.552-3.759L21.075,32.27l0.776,5.221c0.859,5.775,5.694,9.967,11.499,9.967
				c6.444,0,11.683-5.24,11.683-11.684c0-5.803-4.19-10.641-9.964-11.498l-5.223-0.777l13.62-13.616
				c2.004-2.005,5.514-2.005,7.519,0l10.084,10.087c1.184-6.685,7.035-11.779,14.054-11.779c7.868,0,14.269,6.4,14.269,14.268
				c0,7.02-5.097,12.871-11.778,14.053l10.225,10.226c1.001,1.002,1.552,2.337,1.552,3.759c0,1.423-0.551,2.758-1.552,3.76
				L50.982,91.11C49.979,92.112,48.644,92.665,47.222,92.665z M17.954,42.908l-7.586,7.586l36.854,36.857v-0.003
				c0.002,0,0.007-0.003,0.007-0.003l36.848-36.852L68.493,34.912l2.97-4.305c1.185,0.532,2.415,0.803,3.659,0.803
				c4.935,0,8.952-4.017,8.952-8.953c0-4.935-4.018-8.951-8.952-8.951c-4.937,0-8.952,4.017-8.952,8.951
				c0,1.246,0.27,2.477,0.802,3.659l-4.305,2.97L47.224,13.641l-6.74,6.739c5.92,2.694,9.866,8.587,9.866,15.394
				c0,9.375-7.628,17-17,17C26.542,52.773,20.649,48.826,17.954,42.908z"/>
		</g>
	</g>
</g>
</svg>
