<?xml version="1.0" encoding="utf-8"?>
<!-- Generator: Adobe Illustrator 15.0.0, SVG Export Plug-In . SVG Version: 6.00 Build 0)  -->
<!DOCTYPE svg PUBLIC "-//W3C//DTD SVG 1.1//EN" "http://www.w3.org/Graphics/SVG/1.1/DTD/svg11.dtd">
<svg version="1.1" id="Ebene_1" xmlns="http://www.w3.org/2000/svg" xmlns:xlink="http://www.w3.org/1999/xlink" x="0px" y="0px"
	 width="500px" height="500px" viewBox="0 0 500 500" enable-background="new 0 0 500 500" xml:space="preserve">
<rect opacity="0.5" fill="#1A171B" width="500" height="501.5"/>
<linearGradient id="SVGID_1_" gradientUnits="userSpaceOnUse" x1="209.998" y1="379.4746" x2="382.7934" y2="-213.3934" gradientTransform="matrix(1 0 0 -1 -47.5 330)">
	<stop  offset="0" style="stop-color:#E6E5E6"/>
	<stop  offset="1" style="stop-color:#8A8A8A"/>
</linearGradient>
<path fill="url(#SVGID_1_)" d="M0,0v501.5h500V0H0z M477.337,478.77H22.663V22.73h454.674V478.77z"/>
<g>
	
		<linearGradient id="SVGID_2_" gradientUnits="userSpaceOnUse" x1="440.9131" y1="15.9326" x2="440.9131" y2="-96.5096" gradientTransform="matrix(1 0 0 -1 -47.5 330)">
		<stop  offset="0" style="stop-color:#909090"/>
		<stop  offset="1" style="stop-color:#616161"/>
	</linearGradient>
	<path fill="url(#SVGID_2_)" d="M418.101,318.2h1.461v17.57h-1.461c-10.599,0-15.897,5.789-15.897,17.364v34.929
		c0,20.502-11.642,32.069-34.937,34.723v-17.36c11.716-0.977,17.575-6.763,17.575-17.362v-34.929
		c0-10.042,3.906-18.759,11.716-26.151"/>
	
		<linearGradient id="SVGID_3_" gradientUnits="userSpaceOnUse" x1="440.9141" y1="104.416" x2="440.9141" y2="-6.1913" gradientTransform="matrix(1 0 0 -1 -47.5 330)">
		<stop  offset="0" style="stop-color:#C7C7C7"/>
		<stop  offset="1" style="stop-color:#616161"/>
	</linearGradient>
	<path fill="url(#SVGID_3_)" d="M396.558,326.983c-8.338-8.336-11.714-16.108-11.714-26.147v-34.935
		c0-10.737-5.861-16.526-17.574-17.361v-17.365c23.292,2.653,34.934,14.225,34.934,34.727v34.935
		c0,11.58,5.299,17.364,15.897,17.364h1.461v17.57C419.562,335.771,404.896,335.325,396.558,326.983z"/>
</g>
<g>
	
		<linearGradient id="SVGID_4_" gradientUnits="userSpaceOnUse" x1="-248.0708" y1="176.7769" x2="-248.0708" y2="116.1273" gradientTransform="matrix(-1 0 0 -1 -156.6641 330)">
		<stop  offset="0" style="stop-color:#909090"/>
		<stop  offset="1" style="stop-color:#616161"/>
	</linearGradient>
	<path fill="url(#SVGID_4_)" d="M89.713,160.189c4.213,3.988,6.319,8.689,6.319,14.105v18.841c0,5.717,3.159,8.837,9.479,9.364
		v9.364c-12.562-1.43-18.842-7.671-18.842-18.729v-18.841c0-6.243-2.858-9.366-8.575-9.366h-0.791v-9.476h0.791"/>
	
		<linearGradient id="SVGID_5_" gradientUnits="userSpaceOnUse" x1="-248.0708" y1="224.5015" x2="-248.0708" y2="164.8452" gradientTransform="matrix(-1 0 0 -1 -156.6641 330)">
		<stop  offset="0" style="stop-color:#C7C7C7"/>
		<stop  offset="1" style="stop-color:#616161"/>
	</linearGradient>
	<path fill="url(#SVGID_5_)" d="M77.303,164.929v-9.477h0.791c5.717,0,8.575-3.121,8.575-9.366v-18.842
		c0-11.057,6.28-17.301,18.842-18.73v9.366c-6.319,0.45-9.479,3.573-9.479,9.364v18.842c0,5.416-1.821,9.607-6.319,14.104
		C85.216,164.688,77.303,164.929,77.303,164.929z"/>
</g>
<g>
	<linearGradient id="SVGID_6_" gradientUnits="userSpaceOnUse" x1="128.1187" y1="26.5" x2="128.1186" y2="472.5717">
		<stop  offset="0" style="stop-color:#C7C7C7"/>
		<stop  offset="1" style="stop-color:#616161"/>
	</linearGradient>
	<polygon fill="url(#SVGID_6_)" points="124.42,148.701 131.817,148.701 131.817,135.521 124.42,141.049 	"/>
	<linearGradient id="SVGID_7_" gradientUnits="userSpaceOnUse" x1="139.731" y1="26.5" x2="139.7309" y2="472.5717">
		<stop  offset="0" style="stop-color:#C7C7C7"/>
		<stop  offset="1" style="stop-color:#616161"/>
	</linearGradient>
	<polygon fill="url(#SVGID_7_)" points="136.036,148.701 143.426,148.701 143.426,135.521 136.036,141.049 	"/>
	<linearGradient id="SVGID_8_" gradientUnits="userSpaceOnUse" x1="163.6997" y1="26.5" x2="163.6997" y2="472.5718">
		<stop  offset="0" style="stop-color:#C7C7C7"/>
		<stop  offset="1" style="stop-color:#616161"/>
	</linearGradient>
	<path fill="url(#SVGID_8_)" d="M160.873,166.506c-3.923,0.049-6.902,1.147-8.934,3.295c-2.033,2.099-3.049,4.748-3.049,7.946
		c0,3.344,1.169,6.09,3.51,8.238c2.222,2.197,5.389,3.319,9.501,3.369c2.505,0,4.467-0.317,5.885-0.952
		c1.441-0.61,2.505-1.562,3.19-2.855h0.142v3.367h7.391V162.95c-0.047-4.638-1.454-7.91-4.217-9.814
		c-2.765-1.855-6.462-2.759-11.093-2.71c-5.481-0.097-9.628,1.748-12.439,5.536l5.817,4.583c0.638-1.104,1.513-1.889,2.625-2.355
		c1.064-0.393,2.518-0.589,4.363-0.589c5.085-0.097,7.604,1.534,7.555,4.895v4.011H160.873z M171.119,175.547
		c0,2.858-0.581,4.691-1.741,5.497c-1.279,0.806-3.47,1.185-6.573,1.136c-2.463,0-4.228-0.5-5.294-1.502
		c-1.113-0.904-1.669-2.003-1.669-3.298c-0.049-2.956,2.083-4.483,6.396-4.581h8.882V175.547z"/>
	<linearGradient id="SVGID_9_" gradientUnits="userSpaceOnUse" x1="190.5942" y1="26.5" x2="190.5942" y2="472.5717">
		<stop  offset="0" style="stop-color:#C7C7C7"/>
		<stop  offset="1" style="stop-color:#616161"/>
	</linearGradient>
	<polygon fill="url(#SVGID_9_)" points="194.293,135.521 186.896,141.049 186.896,148.701 194.293,148.701 	"/>
	<linearGradient id="SVGID_10_" gradientUnits="userSpaceOnUse" x1="202.2065" y1="26.5" x2="202.2065" y2="472.5717">
		<stop  offset="0" style="stop-color:#C7C7C7"/>
		<stop  offset="1" style="stop-color:#616161"/>
	</linearGradient>
	<polygon fill="url(#SVGID_10_)" points="205.902,135.521 198.511,141.049 198.511,148.701 205.902,148.701 	"/>
	<linearGradient id="SVGID_11_" gradientUnits="userSpaceOnUse" x1="218.1733" y1="26.5" x2="218.1733" y2="472.5717">
		<stop  offset="0" style="stop-color:#C7C7C7"/>
		<stop  offset="1" style="stop-color:#616161"/>
	</linearGradient>
	<rect x="214.478" y="164.272" fill="url(#SVGID_11_)" width="7.391" height="7.61"/>
	<linearGradient id="SVGID_12_" gradientUnits="userSpaceOnUse" x1="218.1733" y1="26.5" x2="218.1733" y2="472.5717">
		<stop  offset="0" style="stop-color:#C7C7C7"/>
		<stop  offset="1" style="stop-color:#616161"/>
	</linearGradient>
	<rect x="214.478" y="181.301" fill="url(#SVGID_12_)" width="7.391" height="7.614"/>
	<linearGradient id="SVGID_13_" gradientUnits="userSpaceOnUse" x1="251.5322" y1="26.5" x2="251.5322" y2="472.5717">
		<stop  offset="0" style="stop-color:#C7C7C7"/>
		<stop  offset="1" style="stop-color:#616161"/>
	</linearGradient>
	<polygon fill="url(#SVGID_13_)" points="247.833,148.701 255.23,148.701 255.23,135.521 247.833,141.049 	"/>
	<linearGradient id="SVGID_14_" gradientUnits="userSpaceOnUse" x1="263.1436" y1="26.5" x2="263.1435" y2="472.5717">
		<stop  offset="0" style="stop-color:#C7C7C7"/>
		<stop  offset="1" style="stop-color:#616161"/>
	</linearGradient>
	<polygon fill="url(#SVGID_14_)" points="266.839,135.521 259.448,141.049 259.448,148.701 266.839,148.701 	"/>
	<linearGradient id="SVGID_15_" gradientUnits="userSpaceOnUse" x1="276.5078" y1="26.5" x2="276.5078" y2="472.5717">
		<stop  offset="0" style="stop-color:#C7C7C7"/>
		<stop  offset="1" style="stop-color:#616161"/>
	</linearGradient>
	<polygon fill="url(#SVGID_15_)" points="272.809,148.701 280.206,148.701 280.206,135.521 272.809,141.049 	"/>
	<linearGradient id="SVGID_16_" gradientUnits="userSpaceOnUse" x1="288.1201" y1="26.5" x2="288.1201" y2="472.5717">
		<stop  offset="0" style="stop-color:#C7C7C7"/>
		<stop  offset="1" style="stop-color:#616161"/>
	</linearGradient>
	<polygon fill="url(#SVGID_16_)" points="284.425,148.701 291.815,148.701 291.815,135.521 284.425,141.049 	"/>
	<linearGradient id="SVGID_17_" gradientUnits="userSpaceOnUse" x1="139.731" y1="26.5" x2="139.7309" y2="472.5717">
		<stop  offset="0" style="stop-color:#C7C7C7"/>
		<stop  offset="1" style="stop-color:#616161"/>
	</linearGradient>
	<polygon fill="url(#SVGID_17_)" points="136.036,236.917 143.426,236.917 143.426,223.737 136.036,229.265 	"/>
	<linearGradient id="SVGID_18_" gradientUnits="userSpaceOnUse" x1="128.1187" y1="26.5" x2="128.1186" y2="472.5717">
		<stop  offset="0" style="stop-color:#C7C7C7"/>
		<stop  offset="1" style="stop-color:#616161"/>
	</linearGradient>
	<polygon fill="url(#SVGID_18_)" points="124.42,236.917 131.817,236.917 131.817,223.737 124.42,229.265 	"/>
	<linearGradient id="SVGID_19_" gradientUnits="userSpaceOnUse" x1="166.4829" y1="26.5" x2="166.4829" y2="472.5717">
		<stop  offset="0" style="stop-color:#C7C7C7"/>
		<stop  offset="1" style="stop-color:#616161"/>
	</linearGradient>
	<path fill="url(#SVGID_19_)" d="M178.566,243.622c-2.08-3.198-5.377-4.858-9.891-4.98c-1.891,0-3.581,0.403-5.07,1.208
		c-1.607,0.855-3.084,1.954-4.432,3.296v-19.409h-7.391v53.394h7.391v-3.968c2.457,2.841,5.624,4.31,9.499,4.407
		c2.292-0.049,4.252-0.524,5.883-1.428c1.654-0.879,2.989-2.051,4.005-3.516c1.016-1.196,1.713-2.82,2.091-4.871
		c0.354-1.953,0.532-5.176,0.532-9.668c0-4.565-0.177-7.813-0.53-9.742C180.274,246.393,179.579,244.818,178.566,243.622z
		 M173.721,262.313c-0.166,1.445-0.485,2.744-0.958,3.896c-0.426,1.103-1.147,2.009-2.165,2.719
		c-1.018,0.687-2.401,1.029-4.151,1.029c-1.656,0-2.969-0.368-3.938-1.104c-1.018-0.71-1.763-1.641-2.236-2.792
		c-0.45-1.151-0.745-2.438-0.887-3.858c-0.142-1.396-0.213-2.768-0.213-4.115c0-1.47,0.071-2.879,0.213-4.226
		c0.142-1.348,0.437-2.597,0.887-3.749c0.473-1.151,1.218-2.083,2.236-2.793c0.969-0.71,2.282-1.065,3.938-1.065
		c1.75,0,3.134,0.306,4.151,0.918c1.017,0.662,1.739,1.568,2.165,2.719c0.473,1.152,0.792,2.402,0.958,3.749
		c0.047,1.445,0.071,2.928,0.071,4.446C173.792,259.533,173.768,260.941,173.721,262.313z"/>
	<linearGradient id="SVGID_20_" gradientUnits="userSpaceOnUse" x1="192.0225" y1="26.5" x2="192.0224" y2="472.5717">
		<stop  offset="0" style="stop-color:#C7C7C7"/>
		<stop  offset="1" style="stop-color:#616161"/>
	</linearGradient>
	<polygon fill="url(#SVGID_20_)" points="188.324,236.917 195.721,236.917 195.721,223.737 188.324,229.265 	"/>
	<linearGradient id="SVGID_21_" gradientUnits="userSpaceOnUse" x1="203.6348" y1="26.5" x2="203.6348" y2="472.5717">
		<stop  offset="0" style="stop-color:#C7C7C7"/>
		<stop  offset="1" style="stop-color:#616161"/>
	</linearGradient>
	<polygon fill="url(#SVGID_21_)" points="207.33,223.737 199.939,229.265 199.939,236.917 207.33,236.917 	"/>
	<linearGradient id="SVGID_22_" gradientUnits="userSpaceOnUse" x1="219.6016" y1="26.5" x2="219.6015" y2="472.5717">
		<stop  offset="0" style="stop-color:#C7C7C7"/>
		<stop  offset="1" style="stop-color:#616161"/>
	</linearGradient>
	<rect x="215.906" y="252.488" fill="url(#SVGID_22_)" width="7.391" height="7.61"/>
	<linearGradient id="SVGID_23_" gradientUnits="userSpaceOnUse" x1="219.6016" y1="26.5" x2="219.6015" y2="472.5717">
		<stop  offset="0" style="stop-color:#C7C7C7"/>
		<stop  offset="1" style="stop-color:#616161"/>
	</linearGradient>
	<rect x="215.906" y="269.518" fill="url(#SVGID_23_)" width="7.391" height="7.613"/>
	<linearGradient id="SVGID_24_" gradientUnits="userSpaceOnUse" x1="160.7866" y1="26.5" x2="160.7866" y2="472.5717">
		<stop  offset="0" style="stop-color:#C7C7C7"/>
		<stop  offset="1" style="stop-color:#616161"/>
	</linearGradient>
	<path fill="url(#SVGID_24_)" d="M159.182,314.104c-1.416,1.458-2.147,3.5-2.194,6.124v10.739c0,2.443-0.464,4.545-1.392,6.305
		c-0.428,0.855-1.011,1.503-1.748,1.942c-0.714,0.513-1.558,0.77-2.533,0.77v4.948c1.903,0.049,3.33,0.952,4.281,2.708
		c0.928,1.684,1.392,3.829,1.392,6.439v10.574c0.047,2.586,0.778,4.599,2.194,6.037c1.345,1.464,2.984,2.22,4.918,2.269h6.158
		v-4.899h-3.557c-1.162-0.05-1.993-0.733-2.49-2.053c-0.475-1.197-0.711-2.59-0.711-4.179v-9.603c0-1.759-0.232-3.237-0.696-4.436
		c-0.439-1.196-1.013-2.174-1.721-2.932c-0.586-0.758-1.208-1.331-1.868-1.723c-0.659-0.343-1.185-0.55-1.575-0.623v-0.146
		c0.854-0.196,2.001-1.039,3.442-2.529c0.708-0.758,1.282-1.735,1.721-2.932c0.463-1.101,0.696-2.48,0.696-4.142v-9.677
		c0-1.661,0.237-3.115,0.711-4.361c0.498-1.197,1.328-1.82,2.49-1.87h3.557v-4.903h-6.158
		C162.166,311.953,160.527,312.67,159.182,314.104z"/>
	<linearGradient id="SVGID_25_" gradientUnits="userSpaceOnUse" x1="177.2329" y1="26.5" x2="177.2329" y2="472.5718">
		<stop  offset="0" style="stop-color:#C7C7C7"/>
		<stop  offset="1" style="stop-color:#616161"/>
	</linearGradient>
	<polygon fill="url(#SVGID_25_)" points="173.534,325.133 180.932,325.133 180.932,311.953 173.534,317.481 	"/>
	<linearGradient id="SVGID_26_" gradientUnits="userSpaceOnUse" x1="188.8452" y1="26.5" x2="188.8452" y2="472.5718">
		<stop  offset="0" style="stop-color:#C7C7C7"/>
		<stop  offset="1" style="stop-color:#616161"/>
	</linearGradient>
	<polygon fill="url(#SVGID_26_)" points="185.15,325.133 192.541,325.133 192.541,311.953 185.15,317.481 	"/>
	<linearGradient id="SVGID_27_" gradientUnits="userSpaceOnUse" x1="210.2153" y1="26.5" x2="210.2153" y2="472.5717">
		<stop  offset="0" style="stop-color:#C7C7C7"/>
		<stop  offset="1" style="stop-color:#616161"/>
	</linearGradient>
	<polygon fill="url(#SVGID_27_)" points="202.842,317.449 202.842,325.592 210.199,320.025 210.199,365.347 217.589,365.347 
		217.589,311.953 210.199,311.953 	"/>
	<linearGradient id="SVGID_28_" gradientUnits="userSpaceOnUse" x1="249.8188" y1="26.5" x2="249.8188" y2="472.5718">
		<stop  offset="0" style="stop-color:#C7C7C7"/>
		<stop  offset="1" style="stop-color:#616161"/>
	</linearGradient>
	<polygon fill="url(#SVGID_28_)" points="246.124,325.133 253.515,325.133 253.515,311.953 246.124,317.481 	"/>
	<linearGradient id="SVGID_29_" gradientUnits="userSpaceOnUse" x1="238.207" y1="26.5" x2="238.207" y2="472.5718">
		<stop  offset="0" style="stop-color:#C7C7C7"/>
		<stop  offset="1" style="stop-color:#616161"/>
	</linearGradient>
	<polygon fill="url(#SVGID_29_)" points="234.508,325.133 241.906,325.133 241.906,311.953 234.508,317.481 	"/>
	<linearGradient id="SVGID_30_" gradientUnits="userSpaceOnUse" x1="265.7861" y1="26.5" x2="265.7861" y2="472.5717">
		<stop  offset="0" style="stop-color:#C7C7C7"/>
		<stop  offset="1" style="stop-color:#616161"/>
	</linearGradient>
	<rect x="262.091" y="340.704" fill="url(#SVGID_30_)" width="7.391" height="7.61"/>
	<linearGradient id="SVGID_31_" gradientUnits="userSpaceOnUse" x1="265.7861" y1="26.5" x2="265.7861" y2="472.5717">
		<stop  offset="0" style="stop-color:#C7C7C7"/>
		<stop  offset="1" style="stop-color:#616161"/>
	</linearGradient>
	<rect x="262.091" y="357.733" fill="url(#SVGID_31_)" width="7.391" height="7.613"/>
	<linearGradient id="SVGID_32_" gradientUnits="userSpaceOnUse" x1="310.7559" y1="26.5" x2="310.7558" y2="472.5718">
		<stop  offset="0" style="stop-color:#C7C7C7"/>
		<stop  offset="1" style="stop-color:#616161"/>
	</linearGradient>
	<polygon fill="url(#SVGID_32_)" points="307.061,325.133 314.451,325.133 314.451,311.953 307.061,317.481 	"/>
	<linearGradient id="SVGID_33_" gradientUnits="userSpaceOnUse" x1="299.1426" y1="26.5" x2="299.1425" y2="472.5718">
		<stop  offset="0" style="stop-color:#C7C7C7"/>
		<stop  offset="1" style="stop-color:#616161"/>
	</linearGradient>
	<polygon fill="url(#SVGID_33_)" points="295.444,325.133 302.842,325.133 302.842,311.953 295.444,317.481 	"/>
	<linearGradient id="SVGID_34_" gradientUnits="userSpaceOnUse" x1="324.1191" y1="26.5" x2="324.1191" y2="472.5718">
		<stop  offset="0" style="stop-color:#C7C7C7"/>
		<stop  offset="1" style="stop-color:#616161"/>
	</linearGradient>
	<polygon fill="url(#SVGID_34_)" points="320.42,325.133 327.817,325.133 327.817,311.953 320.42,317.481 	"/>
	<linearGradient id="SVGID_35_" gradientUnits="userSpaceOnUse" x1="335.7314" y1="26.5" x2="335.7314" y2="472.5718">
		<stop  offset="0" style="stop-color:#C7C7C7"/>
		<stop  offset="1" style="stop-color:#616161"/>
	</linearGradient>
	<polygon fill="url(#SVGID_35_)" points="332.036,325.133 339.427,325.133 339.427,311.953 332.036,317.481 	"/>
	<linearGradient id="SVGID_36_" gradientUnits="userSpaceOnUse" x1="360.1895" y1="26.5" x2="360.1894" y2="472.5717">
		<stop  offset="0" style="stop-color:#C7C7C7"/>
		<stop  offset="1" style="stop-color:#616161"/>
	</linearGradient>
	<path fill="url(#SVGID_36_)" d="M365.379,337.273c-0.928-1.684-1.392-3.829-1.392-6.439V320.26
		c-0.047-2.586-0.778-4.599-2.193-6.037c-1.346-1.464-2.984-2.22-4.919-2.269h-6.157v4.899h3.557c1.162,0.05,1.992,0.733,2.49,2.053
		c0.475,1.197,0.711,2.59,0.711,4.179v9.603c0,1.759,0.232,3.237,0.695,4.436c0.439,1.196,1.014,2.174,1.722,2.932
		c0.586,0.758,1.208,1.331,1.868,1.723c0.658,0.343,1.184,0.55,1.574,0.623v0.146c-0.854,0.196-2.002,1.039-3.442,2.529
		c-0.708,0.758-1.282,1.735-1.722,2.932c-0.463,1.101-0.695,2.48-0.695,4.142v9.677c0,1.661-0.236,3.115-0.711,4.361
		c-0.498,1.197-1.328,1.82-2.49,1.87h-3.557v4.903h6.157c1.935,0,3.573-0.717,4.919-2.151c1.415-1.458,2.146-3.5,2.193-6.124
		v-10.739c0-2.443,0.464-4.545,1.392-6.305c0.429-0.855,1.011-1.503,1.748-1.942c0.714-0.513,1.558-0.77,2.533-0.77v-4.948
		C367.757,339.933,366.331,339.029,365.379,337.273z"/>
</g>
</svg>
