<?xml version="1.0" encoding="utf-8"?>
<!-- Generator: Adobe Illustrator 15.0.0, SVG Export Plug-In . SVG Version: 6.00 Build 0)  -->
<!DOCTYPE svg PUBLIC "-//W3C//DTD SVG 1.0//EN" "http://www.w3.org/TR/2001/REC-SVG-20010904/DTD/svg10.dtd">
<svg version="1.0" id="Ebene_1" xmlns="http://www.w3.org/2000/svg" xmlns:xlink="http://www.w3.org/1999/xlink" x="0px" y="0px"
	 width="500px" height="500px" viewBox="0 0 500 500" enable-background="new 0 0 500 500" xml:space="preserve">
<g>
	<linearGradient id="SVGID_1_" gradientUnits="userSpaceOnUse" x1="221.562" y1="49.0532" x2="290.5586" y2="475.0318">
		<stop  offset="0" style="stop-color:#C7C7C7"/>
		<stop  offset="1" style="stop-color:#616161"/>
	</linearGradient>
	<path fill="url(#SVGID_1_)" d="M253.076,459.473c-114.45,0-199.249-79.463-199.249-192.727
		c0-116.228,90.137-214.073,206.958-214.073c113.264,0,195.69,82.427,195.69,193.319c0,33.208-7.709,61.079-21.348,81.241
		c-12.453,18.383-34.395,29.058-53.37,29.058c-25.499,0-43.289-12.453-56.336-32.022c-5.93-8.302-17.196-29.65-20.755-36.173
		l-95.473,2.372c-4.744,8.895-23.127,48.033-27.278,56.928l-35.581-20.162c16.604-27.871,98.439-180.865,106.148-192.725h8.895
		c23.721,40.324,75.904,135.797,90.729,160.11c10.674,17.791,20.162,27.871,32.615,27.871c23.127,0,31.429-29.057,31.429-72.939
		c0-91.322-69.381-164.261-155.959-164.261c-97.253,0-163.669,81.241-163.669,178.493c0,94.287,68.195,163.076,157.146,163.076
		c40.324,0,73.532-12.453,101.996-29.65l15.418,33.208C336.689,449.391,299.33,459.473,253.076,459.473z M290.436,258.445
		c-4.151-8.896-32.022-61.08-34.395-66.417c-4.151,7.116-29.65,58.707-34.394,67.603L290.436,258.445z"/>
</g>
</svg>
